<?xml version="1.0" encoding="utf-8"?><svg version="1.1" id="Layer_1" xmlns="http://www.w3.org/2000/svg" xmlns:xlink="http://www.w3.org/1999/xlink" x="0px" y="0px" viewBox="0 0 101.24 122.88" style="enable-background:new 0 0 101.24 122.88" xml:space="preserve"><style type="text/css"><![CDATA[
	.st0{fill-rule:evenodd;clip-rule:evenodd;}
]]></style><g><path class="st0" d="M23.46,93.89c3.54,0,6.41,2.88,6.41,6.41c0,3.55-2.88,6.42-6.41,6.42c-3.55,0-6.42-2.88-6.42-6.42 C17.05,96.76,19.92,93.89,23.46,93.89L23.46,93.89L23.46,93.89z M96.07,122.87H5.74v0.01c-1.56,0-3-0.65-4.05-1.69l0,0v-0.01H1.68 l-0.01-0.01C0.64,120.13,0,118.7,0,117.14v-96.9c0-1.58,0.65-3.02,1.69-4.06s2.48-1.69,4.06-1.69h14.92v-2.82 c0-1.05,0.43-2.01,1.13-2.71l0,0l0.01-0.01l0.01-0.01c0.7-0.69,1.66-1.12,2.71-1.12h8.81V4.27c0-1.17,0.48-2.23,1.25-3.01 l0.01-0.01l0,0C35.37,0.48,36.43,0,37.6,0h26.89c1.17,0,2.23,0.48,3.01,1.26l0.01-0.01c0.77,0.77,1.25,1.84,1.25,3.02v3.56h7.94 c1.05,0,2.01,0.43,2.71,1.13l0.01,0.01l0.01,0.01l0.01,0.01c0.69,0.7,1.12,1.66,1.12,2.71v2.82h14.92c1.57,0,3.01,0.65,4.05,1.69 l0.01-0.01c1.04,1.04,1.69,2.48,1.69,4.06v102.61L96.07,122.87V20.24c0-0.16-0.07-0.3-0.17-0.41l0.01-0.01H95.9 c-0.1-0.1-0.25-0.16-0.41-0.16l-14.92,0v5.17c0,1.05-0.43,2.01-1.13,2.71h-0.01l-0.01,0.01l-0.01,0.01 c-0.7,0.69-1.66,1.12-2.71,1.12H24.52c-1.06,0-2.03-0.43-2.72-1.13c-0.08-0.08-0.16-0.17-0.22-0.26c-0.56-0.67-0.91-1.54-0.91-2.47 v-5.17H5.74c-0.16,0-0.3,0.07-0.41,0.17c-0.11,0.11-0.17,0.25-0.17,0.41v96.89c0,0.16,0.06,0.31,0.17,0.41l0,0l0.01,0.01 c0.1,0.1,0.25,0.17,0.41,0.17v0.01l90.31,0.01V122.87L96.07,122.87z M66.93,12.96c-0.3,0-0.59-0.05-0.85-0.15 c-1.41,0-2.56-1.15-2.56-2.56V5.18H38.58v5.07c0,1.33-1.01,2.42-2.32,2.55c-0.28,0.1-0.58,0.16-0.88,0.16H26v10.46h49.24V12.96 H66.93L66.93,12.96L66.93,12.96z M47.29,79.45H26.33v9.17c0,1.58-1.28,2.86-2.86,2.86s-2.86-1.28-2.86-2.86V77.45 c0-0.15,0.01-0.29,0.03-0.43c-0.02-0.14-0.03-0.28-0.03-0.43c0-1.58,1.28-2.86,2.86-2.86h23.66l-0.09-7.7 c-0.57-0.17-1.14-0.36-1.7-0.59c-0.56-0.24-1.1-0.49-1.62-0.79l-1.78,1.96c-0.33,0.34-0.74,0.51-1.21,0.53 c-0.47,0.02-0.89-0.13-1.24-0.44l-2.61-2.45c-0.35-0.34-0.55-0.74-0.57-1.21c-0.02-0.48,0.14-0.88,0.47-1.21l1.95-2.11 c-0.3-0.52-0.58-1.06-0.8-1.61c-0.23-0.55-0.43-1.13-0.6-1.72l-2.61,0.1c-0.48,0.02-0.89-0.14-1.25-0.47 c-0.35-0.34-0.53-0.74-0.55-1.19l-0.14-3.58c-0.02-0.48,0.13-0.89,0.45-1.25c0.33-0.35,0.72-0.53,1.21-0.55l2.85-0.11 c0.17-0.59,0.36-1.16,0.59-1.72s0.49-1.1,0.79-1.62l-1.93-1.78c-0.35-0.33-0.55-0.73-0.57-1.21c-0.02-0.47,0.14-0.89,0.47-1.25 l2.4-2.61c0.34-0.35,0.73-0.55,1.21-0.57c0.48-0.02,0.88,0.15,1.21,0.47l2.15,1.95c0.49-0.29,1.01-0.57,1.57-0.81 c0.55-0.23,1.13-0.43,1.72-0.6l-0.1-2.61c-0.02-0.48,0.14-0.89,0.47-1.25c0.34-0.35,0.74-0.53,1.19-0.55l3.58-0.13 c0.48-0.02,0.89,0.13,1.25,0.45c0.35,0.33,0.53,0.72,0.55,1.21l0.11,2.85c0.57,0.17,1.14,0.36,1.7,0.59 c0.56,0.22,1.1,0.49,1.62,0.79l1.78-1.92c0.33-0.35,0.74-0.55,1.21-0.57c0.47-0.02,0.89,0.14,1.25,0.47l0.04,0.03l2.61,2.4 c0.35,0.34,0.55,0.73,0.57,1.21c0.02,0.48-0.15,0.88-0.47,1.21l-1.95,2.15c0.29,0.51,0.57,1.03,0.81,1.6 c0.23,0.57,0.43,1.13,0.6,1.7l2.61-0.1c0.48-0.02,0.89,0.14,1.25,0.47c0.35,0.34,0.53,0.74,0.55,1.19l0.14,3.58 c0.02,0.48-0.13,0.89-0.45,1.25c-0.33,0.35-0.72,0.53-1.21,0.55l-2.85,0.11c-0.17,0.57-0.36,1.14-0.59,1.7 c-0.24,0.56-0.49,1.1-0.79,1.62l1.96,1.78c0.34,0.33,0.51,0.74,0.53,1.21c0.02,0.47-0.13,0.88-0.44,1.24l-2.45,2.62 c-0.31,0.35-0.71,0.54-1.19,0.57c-0.48,0.02-0.89-0.14-1.23-0.47l-2.11-1.95c-0.52,0.3-1.06,0.58-1.62,0.8 c-0.55,0.23-1.13,0.43-1.72,0.6l0.09,7.73h23.61c1.58,0,2.86,1.28,2.86,2.86c0,0.15-0.01,0.29-0.03,0.43 c0.02,0.14,0.03,0.28,0.03,0.43v11.17c0,1.58-1.28,2.86-2.86,2.86c-1.58,0-2.86-1.28-2.86-2.86v-9.16H54.16v8.25 c0,1.9-1.54,3.44-3.44,3.44s-3.44-1.54-3.44-3.44V79.45L47.29,79.45L47.29,79.45z M50.21,45.76c0.97-0.04,1.88,0.1,2.76,0.44 c0.87,0.34,1.63,0.8,2.3,1.41c0.65,0.61,1.18,1.34,1.59,2.18c0.41,0.86,0.62,1.75,0.66,2.72c0.04,0.97-0.11,1.88-0.44,2.76 c-0.34,0.87-0.81,1.63-1.41,2.3c-0.61,0.65-1.34,1.18-2.18,1.59c-0.84,0.4-1.75,0.62-2.72,0.66c-0.97,0.04-1.88-0.11-2.76-0.44 c-0.87-0.34-1.63-0.81-2.3-1.41c-0.65-0.61-1.18-1.34-1.59-2.18c-0.4-0.84-0.62-1.75-0.66-2.72c-0.04-0.97,0.11-1.88,0.44-2.76 c0.34-0.87,0.81-1.63,1.41-2.3c0.61-0.65,1.34-1.18,2.18-1.59C48.35,46.01,49.25,45.8,50.21,45.76L50.21,45.76L50.21,45.76z M77.77,93.89c3.55,0,6.42,2.88,6.42,6.41c0,3.55-2.88,6.42-6.42,6.42c-3.54,0-6.41-2.88-6.41-6.42 C71.35,96.76,74.23,93.89,77.77,93.89L77.77,93.89L77.77,93.89z M50.5,93.89c3.55,0,6.42,2.88,6.42,6.41 c0,3.55-2.88,6.42-6.42,6.42c-3.55,0-6.42-2.88-6.42-6.42C44.09,96.76,46.96,93.89,50.5,93.89L50.5,93.89L50.5,93.89z"/></g></svg>