<?xml version="1.0" encoding="utf-8"?>
<!-- Generator: Adobe Illustrator 19.1.0, SVG Export Plug-In . SVG Version: 6.00 Build 0)  -->
<svg version="1.1" id="Layer_1" xmlns="http://www.w3.org/2000/svg" xmlns:xlink="http://www.w3.org/1999/xlink" x="0px" y="0px"
	 viewBox="0 0 64 64" enable-background="new 0 0 64 64" xml:space="preserve">
<path id="Text-tool" d="M61.3532181,2.3886499C60.8721352,0.77235,59.5148201-0.01455,58.5148201-0.01455
	c0.1809998,0-34.7579002-0.0136-47.8758011-0.0136c-2.9957004,0-4.8558855,0.0007-4.8970003,0.0024
	C4.03302,0.04665,2.8945198,1.17215,2.6395199,2.3886499c-0.1513853,0.7219-0.0975001-0.6331999-0.0975001,17.8031998
	c0,0-0.0025001,0.1509991,0.0431149,0.5279999c0.3898852,1.8477001,1.9273851,2.7136993,3.7625849,2.7136993
	c3.2359004,0,7.3954997-2.6949997,7.8070998-7.4528999l0.0207005-0.408l11.2912998-0.0352001h0.0207005h0.0016994
	l0.0030994,0.0016003h0.0016003h0.0016994h0.0016003h0.0015011l0.0016994,0.0016003h0.0014992l0.0017014,0.0015993
	l0.0015984,0.0016003h0.0015011v0.0015001h0.0016003l0.0016003,0.0017004l0.0015984,0.0015993l0.0017014,0.0016003
	l0.0014992,0.0016003l0.0016003,0.0015993l0.0016994,0.0016003l0.0016003,0.0016003v0.0016003l0.0016003,0.0015993V15.56145
	v0.0016003h0.0014992v0.0015993v0.0016003v0.0016003v0.0016003v0.0015993v0.0032005v0.0223999v35.7071991v0.0161018h-0.0143986
	h-3.1519012l-0.1952,0.0046997c-2.1146984,0.1585999-3.6665001,1.4902992-4.2159996,3.1264
	c-0.3606987,1.0737991-0.2768002,1.3132019-0.2768002,4.6864014c0-0.1016006-0.0038986-0.1478004-0.0072002-0.1478004
	c-0.0289993,0-0.0064983,3.6250992,3.2392006,4.6997986c0.8012009,0.2653008,8.0429993,0.3387032,13.7827168,0.3387032
	c3.6510811,0,6.695282-0.0297012,7.0844841-0.0587006c2.1296997-0.1585007,3.7221985-1.5070038,4.2767982-3.1712036
	c0.3525009-1.0578995,0.2784004-1.1899986,0.2784004-4.8223c0,0.1053009,0.0043983,0.1532021,0.0082016,0.1532021
	c0.0326996,0,0.0238991-3.4556999-3.0914001-4.5245018c-0.7382011-0.2531967-1.0839005-0.2933998-2.3179016-0.2933998
	c-0.5741005,0-1.3403015,0.0087013-2.4277992,0.0087013h-0.0191002h-0.0015984h-0.0016022v-0.0017014h-0.0017014v-0.0015984
	v-0.0014992l-0.0014992-0.0193024v-35.7584h11.3472023c0.0711975,4.3004007,3.4926987,7.6778002,7.5631981,7.8448
	c0.161499,0.0065994,0.3395996,0.0132008,0.5285988,0.0132008c0.9820023,0,2.258503-0.1779003,3.021801-1.4531002
	c0.1542015-0.2577,0.3399162-0.5668011,0.4239998-0.964901C61.5488167,20.0512505,61.4547195,2.7297499,61.3532181,2.3886499z
	 M59.3847198,20.60145c-0.0300026,0.0771008-0.1038017,0.2003994-0.1716995,0.3138008
	c-0.1514015,0.2529984-0.365303,0.4801998-1.305603,0.4801998c-0.1597977,0-0.3101997-0.0059013-0.4466972-0.0115013
	c-3.113102-0.1276989-5.5929031-2.7103996-5.645401-5.8795996l-0.0326004-1.9668999h-1.9670982H38.4684181h-2v2v35.7584
	l0.0014992,0.1002998l0.000103,0.0007019l0.0015984,1.9213982h0.0223007v0.0017014h2
	c0.6343002,0,1.160099-0.0028992,1.6026001-0.0054016l0.8251991-0.0032997c1.1290016,0,1.2220001,0.0319023,1.6688004,0.1851997
	c1.5298004,0.5248032,1.7195015,2.1091003,1.7429008,2.4794998h-0.010601c0,0.6244011,0.0021019,1.1459007,0.0040016,1.5868034
	c0.0084991,2.0380974,0.0049973,2.0486984-0.1798019,2.603199c-0.3364983,1.0097008-1.328701,1.719799-2.5223007,1.8085976
	c-0.3591003,0.0223999-3.1736984,0.0536003-6.9415817,0.0536003c-8.014616,0-12.3816166-0.1307983-13.229002-0.263298
	c-1.5624142-0.5666008-1.7668152-2.2266998-1.7934151-2.6273994h0.0077c0-0.6242027-0.0028992-1.1417999-0.0052834-1.5777016
	c-0.0105152-1.9106979,0.0000839-1.9423981,0.1779995-2.4719009c0.3275852-0.975399,1.2783852-1.6649971,2.4289989-1.7654991
	l0.0862846-0.0023994h3.1662998l2-0.0161018v-2v-35.740799l-0.0014992-2h-0.0160007v-0.0192003h-1.1827984l-0.0032864-0.0031996
	h-0.0064144l-0.0016994-0.0016003h-0.3686008l-0.0065002-0.0031004l-0.475399,0.0015001L14.1693192,13.57265l-1.8946991,0.0060005
	l-0.0964851,1.8922997l-0.0189152,0.3703003c-0.3339996,3.6491995-3.5845003,5.5922995-5.8115001,5.5922995
	c-1.4372997,0-1.7073998-0.7124996-1.7876997-1.0459003c-0.0123-0.1110001-0.0171003-0.176899-0.0180001-0.1957989
	c0-4.9156008-0.0038853-8.4246006-0.0065999-10.9412003C4.5306196,4.8678498,4.52882,3.22785,4.56392,2.94785l0.0330997-0.1489
	c0.0560002-0.2672999,0.3793001-0.7795,1.2026-0.8250999c0.2771001-0.0015,2.0718999-0.002,4.8518-0.002h0.0067997
	c13.0723009,0,47.7075005,0.0135,47.8549156,0.0136c0.0972862,0.0036,0.604084,0.1615999,0.8646851,0.8062
	C59.4665184,4.8607502,59.5204201,18.9434509,59.3847198,20.60145z"/>
<g>
</g>
<g>
</g>
<g>
</g>
<g>
</g>
<g>
</g>
<g>
</g>
<g>
</g>
<g>
</g>
<g>
</g>
<g>
</g>
<g>
</g>
<g>
</g>
<g>
</g>
<g>
</g>
<g>
</g>
</svg>
