<svg id="Layer_1" data-name="Layer 1" xmlns="http://www.w3.org/2000/svg" viewBox="0 0 122.88 91.9"><title>working-hours</title><path d="M115.7,22.45a3.39,3.39,0,1,0-5.7,3.67,36.16,36.16,0,0,1,2.93,5.49,3.4,3.4,0,0,0,6.4-2.19c-.06-.17-.1-.33-.18-.51a42.18,42.18,0,0,0-3.45-6.46ZM23.61,67.79l5.48,14.37,2.75-7.83-1.35-1.47c-1-1.49-.67-3.17,1.21-3.47a13.73,13.73,0,0,1,2,0,10.31,10.31,0,0,1,2.23.09c1.75.38,1.93,2.07,1.06,3.42l-1.35,1.47,2.75,7.83,5-14.37C47,71,56.57,71.66,60.5,73.85c4.09,2.29,5,5.62,5.74,9.44l.58.19c4.07,1.52,2,7.65-2.14,6.43-.71-.21-1.44-.45-2.13-.7a3.37,3.37,0,0,1-2-2H0c1.18-5.41,1.06-10.4,6.49-13.4,4.84-2.69,13.16-2.49,17.12-6.06Zm-1-9.63a2.42,2.42,0,0,1-1.34-.3A3.07,3.07,0,0,1,20,56.35c-.59-1.32-1.06-4.8.43-5.79l-.28-.18,0-.39c-.06-.7-.07-1.55-.09-2.43-.05-3.27-.12-7.23-2.82-8L16,39.19l.77-.92a43.31,43.31,0,0,1,6.76-6.68,17.45,17.45,0,0,1,7.82-3.7A9.56,9.56,0,0,1,39,30a14.14,14.14,0,0,1,2,2,8.75,8.75,0,0,1,6.09,3.47,11.93,11.93,0,0,1,2,3.91,12.94,12.94,0,0,1,.54,4.42,10.51,10.51,0,0,1-3.17,7.16,2.2,2.2,0,0,1,1,.25c1.12.58,1.16,1.86.87,2.93-.3.89-.67,1.92-1,2.79-.42,1.18-1,1.4-2.25,1.27-2.7,11.83-19,12.23-22.47,0ZM71,28.51a3.49,3.49,0,1,1,7,0V49.74l14.54,6.39a3.48,3.48,0,0,1-2.81,6.37L73.2,55.27A3.48,3.48,0,0,1,71,52V28.51ZM109.8,12.28a3.39,3.39,0,0,1,.24,1.16,3.77,3.77,0,0,1-2.62,4.21L97.34,20.73a3.77,3.77,0,1,1-2.18-7.21l1-.3A38.3,38.3,0,0,0,45.38,26.64a12,12,0,0,0-1.2-.39c-.3-.29-.61-.57-1-.84l-.39-.34a16.42,16.42,0,0,0-3.23-2A45.39,45.39,0,0,1,46,15,45,45,0,0,1,99.92,7.6L99,5.13A3.78,3.78,0,0,1,106,2.44l3.76,9.84ZM77.86,85.12a2.78,2.78,0,0,1,.51,0,3.83,3.83,0,0,1,.6,0,34.45,34.45,0,0,0,6.17-.65,3.82,3.82,0,0,1,.68-.06,3.4,3.4,0,0,1,.58,6.73,42.65,42.65,0,0,1-7.31.76,2.84,2.84,0,0,1-.61,0,3.18,3.18,0,0,1-.62.06,46.57,46.57,0,0,1-6.29-.43,6.25,6.25,0,0,0,1.51-5.54l-.24-1.14a37.79,37.79,0,0,0,5,.33Zm18.92-4.9a3.39,3.39,0,0,0,3,6.09,37.91,37.91,0,0,0,6.45-4.3,3.39,3.39,0,0,0-3.64-5.68,3.51,3.51,0,0,0-.61.39,37.45,37.45,0,0,1-5.16,3.5Zm13.38-12.75a3.39,3.39,0,0,0,5.74,3.61,45.64,45.64,0,0,0,3.38-6.51,3.39,3.39,0,0,0-6.08-3,56.48,56.48,0,0,1-3,5.88Zm5.8-17.6a3.39,3.39,0,0,0,6.74.75,41.28,41.28,0,0,0,0-7.54,3.39,3.39,0,0,0-6.76.56,38.12,38.12,0,0,1,0,6.23Z"/></svg>